HIERARCHY
ROOT Hips
{
	OFFSET 0.000000 0.000000 0.000000 
	CHANNELS 6 Xposition Yposition Zposition Zrotation Yrotation Xrotation
	JOINT LeftUpLeg
	{
		OFFSET 1.363060 -1.794630 0.839290 
		CHANNELS 3 Zrotation Yrotation Xrotation
		JOINT LeftLeg
		{
			OFFSET 2.448110 -6.726130 0.000000 
			CHANNELS 3 Zrotation Yrotation Xrotation
			JOINT LeftFoot
			{
				OFFSET 2.562200 -7.039590 0.000000 
				CHANNELS 3 Zrotation Yrotation Xrotation
				JOINT LeftToeBase
				{
					OFFSET 0.157640 -0.433110 2.322550 
					CHANNELS 3 Zrotation Yrotation Xrotation
					End Site
					{
						OFFSET 0.000000 0.000000 0.000000 
					}
				}
			}
		}
	}
	JOINT RightUpLeg
	{
		OFFSET -1.305520 -1.794630 0.839290 
		CHANNELS 3 Zrotation Yrotation Xrotation
		JOINT RightLeg
		{
			OFFSET -2.542530 -6.985550 0.000000 
			CHANNELS 3 Zrotation Yrotation Xrotation
			JOINT RightFoot
			{
				OFFSET -2.568260 -7.056230 0.000000 
				CHANNELS 3 Zrotation Yrotation Xrotation
				JOINT RightToeBase
				{
					OFFSET -0.164730 -0.452590 2.363150 
					CHANNELS 3 Zrotation Yrotation Xrotation
					End Site
					{
						OFFSET 0.000000 0.000000 0.000000 
					}
				}
			}
		}
	}
	JOINT Spine
	{
		OFFSET 0.028270 2.035590 -0.193380 
		CHANNELS 3 Zrotation Yrotation Xrotation
		JOINT Spine1
		{
			OFFSET 0.056720 2.048850 -0.042750 
			CHANNELS 3 Zrotation Yrotation Xrotation
			JOINT Neck1
			{
				OFFSET -0.054170 1.746240 0.172020 
				CHANNELS 3 Zrotation Yrotation Xrotation
				JOINT Head
				{
					OFFSET 0.104070 1.761360 -0.123970 
					CHANNELS 3 Zrotation Yrotation Xrotation
					End Site
					{
						OFFSET 0.000000 0.000000 0.000000 
					}
				}
			}
			JOINT LeftArm
			{
				OFFSET 3.362410 1.200890 -0.311210 
				CHANNELS 3 Zrotation Yrotation Xrotation
				JOINT LeftForeArm
				{
					OFFSET 4.983000 -0.000000 -0.000000 
					CHANNELS 3 Zrotation Yrotation Xrotation
					JOINT LeftHand
					{
						OFFSET 3.483560 -0.000000 -0.000000 
						CHANNELS 3 Zrotation Yrotation Xrotation
						JOINT LeftHandIndex1
						{
							OFFSET 0.715260 -0.000000 -0.000000 
							CHANNELS 3 Zrotation Yrotation Xrotation
							End Site
							{
								OFFSET 0.000000 0.000000 0.000000 
							}
						}
					}
				}
			}
			JOINT RightArm
			{
				OFFSET -3.136600 1.374050 -0.404650 
				CHANNELS 3 Zrotation Yrotation Xrotation
				JOINT RightForeArm
				{
					OFFSET -5.241900 -0.000000 -0.000000 
					CHANNELS 3 Zrotation Yrotation Xrotation
					JOINT RightHand
					{
						OFFSET -3.444170 -0.000000 -0.000000 
						CHANNELS 3 Zrotation Yrotation Xrotation
						JOINT RightHandIndex1
						{
							OFFSET -0.622530 -0.000000 -0.000000 
							CHANNELS 3 Zrotation Yrotation Xrotation
							End Site
							{
								OFFSET 0.000000 0.000000 0.000000 
							}
						}
					}
				}
			}
		}
	}
}
MOTION
Frames: 10
Frame Time: 0.041667
-3.883858 17.535360 -6.705696 -2.863424 6.985009 15.023067 -19.462727 -1.564424 -35.907960 3.386975 11.866431 35.924508 -2.161161 14.026413 -12.610029 0.384400 3.981600 11.025000 27.467921 10.302251 -5.578507 -4.155540 -9.396688 34.369995 0.096093 -4.185144 -10.784902 -0.023700 -0.994300 2.733200 1.638094 -2.306586 -4.946961 2.397603 -1.567687 -0.065428 -3.250927 13.628435 11.388067 -2.268700 6.770100 5.219000 36.817766 -25.818774 -117.528105 -2.586840 -7.197527 1.112534 -2.783698 -6.047254 26.696946 -7.125000 0.000000 0.000000 71.396058 -10.950428 36.284403 -96.377419 54.281055 -61.024794 1.779652 -3.010594 -3.144179 7.125000 0.000000 0.000000 
-3.956317 17.530387 -6.753292 -3.282437 6.665888 15.169328 -18.644891 -2.178758 -37.290435 3.759467 12.442792 37.729537 -2.317039 14.846059 -12.834249 0.566200 4.819200 13.393700 27.953366 8.902684 -4.808886 -3.658473 -8.560885 31.648061 0.057503 -3.795197 -10.718241 -0.012000 -0.706700 1.942200 1.789263 -2.541476 -4.995528 2.373708 -1.679258 0.157049 -3.348966 14.070583 11.488517 -2.318100 6.988200 5.334600 38.003481 -26.531044 -118.278270 -2.991457 -6.658033 1.334627 -2.601446 -5.999881 26.809059 -7.125000 0.000000 0.000000 70.926964 -9.968924 37.858906 -97.396577 54.007976 -61.900816 1.802817 -2.964139 -3.551456 7.125000 0.000000 0.000000 
-4.022687 17.520239 -6.800887 -3.799419 6.606744 15.353520 -17.794412 -2.735848 -38.860248 4.187832 13.059554 39.710666 -2.459087 15.619035 -13.113002 0.576200 4.861100 13.512900 28.824147 8.286692 -4.162007 -3.280194 -7.925350 29.626104 0.059330 -3.983832 -11.098002 -0.007700 -0.568400 1.561800 1.959334 -2.769071 -5.093844 2.248770 -1.788721 0.301873 -3.287982 14.507157 11.859880 -2.296100 7.214100 5.539200 39.121000 -27.534239 -118.870025 -3.279399 -6.333002 1.502242 -2.361832 -5.914464 26.898659 -7.125000 0.000000 0.000000 70.571128 -9.100631 39.294911 -98.368917 53.737049 -62.742735 1.823232 -2.919149 -3.996521 7.125000 0.000000 0.000000 
-4.076372 17.502378 -6.836711 -4.207308 6.516037 15.388171 -17.208101 -2.941724 -40.094199 4.556916 13.554147 41.356217 -2.516953 16.013176 -13.519622 0.432500 4.220400 11.697500 29.498107 7.830527 -3.423479 -2.976060 -7.382419 27.947308 0.024531 -3.991938 -11.635549 -0.011200 -0.681900 1.874100 2.136000 -2.901017 -5.208019 2.141934 -1.846580 0.362192 -3.269420 14.677022 11.826789 -2.362800 7.317400 5.502400 40.075535 -28.860330 -119.287658 -3.431944 -6.273969 1.602425 -2.133263 -5.801411 26.580777 -7.125000 0.000000 0.000000 70.646373 -8.225789 40.093113 -98.822636 53.591893 -63.058361 1.816922 -2.923848 -3.950190 7.125000 0.000000 0.000000 
-4.126098 17.480052 -6.873955 -4.424047 6.401013 15.229136 -17.032209 -2.680016 -41.048452 4.880157 13.947283 42.726197 -2.425055 15.696641 -13.780307 0.205100 2.916300 8.045800 29.982885 7.872321 -2.732714 -2.801246 -7.080879 27.041274 -0.071444 -3.939577 -12.766430 -0.031100 -1.137900 3.128400 2.329419 -3.110042 -5.308459 2.243856 -1.940672 0.298455 -3.201901 14.979854 11.726356 -2.368700 7.476800 5.438100 40.911345 -30.129625 -119.648785 -3.570310 -6.197761 1.686520 -1.957084 -5.689655 26.339351 -7.125000 0.000000 0.000000 70.412395 -7.374457 41.276334 -99.350508 53.419787 -63.434383 1.809659 -2.914033 -3.907200 7.125000 0.000000 0.000000 
-4.164459 17.448896 -6.897398 -4.564795 6.169657 15.079106 -17.186087 -2.017908 -41.790181 5.137395 14.233412 43.773642 -2.116982 14.391169 -14.087412 0.085500 1.885800 5.190200 30.319767 7.806130 -2.357525 -2.715746 -6.948065 26.650315 -0.141247 -3.996460 -13.663518 -0.012100 -0.711000 1.954100 2.472662 -3.263606 -5.355372 2.207158 -2.010002 0.482910 -3.102163 15.221351 11.518418 -2.354800 7.600600 5.328700 42.031426 -31.447034 -120.357787 -3.724575 -6.089816 1.802164 -1.758405 -5.569167 26.434774 -7.125000 0.000000 0.000000 69.910233 -6.477910 42.902461 -99.991254 53.209060 -63.942729 1.817467 -2.876712 -4.228990 7.125000 0.000000 0.000000 
-4.192062 17.411956 -6.908561 -4.607878 5.880636 15.001319 -17.643934 -1.189396 -42.467216 5.393831 14.492709 44.785007 -1.695831 12.601520 -14.609741 0.033200 1.176400 3.234300 30.391238 7.194973 -2.393841 -2.672057 -6.885677 26.463199 -0.116835 -4.267806 -13.817605 -0.005100 0.460000 -1.264000 2.542342 -3.241737 -5.423399 2.008179 -1.993089 0.735465 -2.838750 15.284830 11.349415 -2.309500 7.646300 5.231700 43.130686 -33.129711 -120.899738 -3.647928 -6.528704 1.819772 -1.542995 -5.409892 26.384041 -7.125000 0.000000 0.000000 69.546584 -5.568039 44.392050 -100.438604 53.043817 -64.254490 1.825313 -2.848783 -4.659044 7.125000 0.000000 0.000000 
-4.209416 17.376742 -6.910794 -4.672000 5.748749 14.834617 -18.283723 -0.311211 -43.109423 5.691497 14.783382 45.939250 -1.479682 11.692748 -14.853446 0.001300 -0.228600 -0.628000 30.489644 6.611723 -2.511368 -2.686660 -6.926058 26.609943 -0.104196 -4.482902 -14.018051 -0.037100 1.243500 -3.419200 2.651023 -3.274848 -5.645949 1.929554 -2.005359 0.454126 -2.795554 15.477435 11.777097 -2.313300 7.758200 5.425100 43.337393 -35.107602 -120.132140 -3.248008 -7.589621 1.613034 -1.458840 -5.192112 25.966381 -7.125000 0.000000 0.000000 69.092918 -5.149491 46.000593 -100.913328 52.883062 -64.507099 1.822900 -2.828910 -4.602052 7.125000 0.000000 0.000000 
-4.214896 17.343455 -6.902675 -4.794709 5.871155 14.611357 -18.942757 0.332245 -43.576499 6.007726 15.075682 47.155706 -1.394098 11.405549 -15.157371 0.046700 -1.394900 -3.836000 30.822234 6.526944 -2.659371 -2.790666 -7.155900 27.350537 -0.119203 -4.798109 -14.683467 -0.052900 1.483900 -4.081300 2.841136 -3.689583 -5.859549 1.919425 -2.206410 0.062422 -2.355399 16.039180 12.263519 -2.026700 8.041100 5.527300 42.465610 -36.909685 -110.637298 -2.520148 -9.679142 1.247223 -1.119851 -5.170153 18.616147 -7.125000 0.000000 0.000000 68.529575 -4.635819 47.993522 -101.202461 52.774523 -64.462696 1.816480 -2.824829 -4.267963 7.125000 0.000000 0.000000 
-4.208807 17.307327 -6.882784 -4.799867 6.134518 14.330873 -19.823612 0.826024 -43.723796 6.293927 15.296262 48.209190 -1.247143 10.861168 -15.576045 0.105900 -2.098500 -5.778000 30.978430 6.451916 -2.839192 -2.947933 -7.469048 28.362199 -0.138596 -5.073363 -15.329345 -0.045000 1.369100 -3.765000 2.984096 -4.274588 -6.064017 1.701954 -2.501124 -0.438624 -1.656358 16.686281 12.806263 -1.593700 8.363900 5.593800 40.895824 -38.674899 -101.764634 -1.578265 -11.687495 0.778697 -1.056736 -5.088214 12.868096 -7.125000 0.000000 0.000000 68.286575 -3.998347 50.024390 -101.302668 52.717782 -64.167750 1.816139 -2.849431 -4.275782 7.125000 0.000000 0.000000 
